<mxfile host="app.diagrams.net" agent="Mozilla/5.0 (Windows NT 10.0; Win64; x64) AppleWebKit/537.36 (KHTML, like Gecko) Chrome/135.0.0.0 Safari/537.36" version="26.2.14">
  <diagram name="Page-1" id="-Lgk29tK1pxOGaUPHkNp">
    <mxGraphModel grid="1" page="1" gridSize="17" guides="1" tooltips="1" connect="1" arrows="1" fold="1" pageScale="1" pageWidth="850" pageHeight="1100" math="0" shadow="0">
      <root>
        <mxCell id="0" />
        <mxCell id="1" parent="0" />
        <mxCell id="vW0nKosWkTAQCs77d1A3-4" value="Packer Code" style="shape=image;verticalLabelPosition=bottom;labelBackgroundColor=none;verticalAlign=top;aspect=fixed;imageAspect=0;image=data:image/svg+xml,PHN2ZyB4bWxuczpjYz0iaHR0cDovL2NyZWF0aXZlY29tbW9ucy5vcmcvbnMjIiB4bWxuczpkYz0iaHR0cDovL3B1cmwub3JnL2RjL2VsZW1lbnRzLzEuMS8iIHhtbG5zOmlua3NjYXBlPSJodHRwOi8vd3d3Lmlua3NjYXBlLm9yZy9uYW1lc3BhY2VzL2lua3NjYXBlIiB4bWxuczpyZGY9Imh0dHA6Ly93d3cudzMub3JnLzE5OTkvMDIvMjItcmRmLXN5bnRheC1ucyMiIHhtbG5zOnNvZGlwb2RpPSJodHRwOi8vc29kaXBvZGkuc291cmNlZm9yZ2UubmV0L0RURC9zb2RpcG9kaS0wLmR0ZCIgeG1sbnM6c3ZnPSJodHRwOi8vd3d3LnczLm9yZy8yMDAwL3N2ZyIgeG1sbnM9Imh0dHA6Ly93d3cudzMub3JnLzIwMDAvc3ZnIiB4bWxuczp4bGluaz0iaHR0cDovL3d3dy53My5vcmcvMTk5OS94bGluayIgdmVyc2lvbj0iMS4xIiBpZD0ic3ZnNDQxMjgiIGlua3NjYXBlOnZlcnNpb249IjAuOTIuMyAoMjQwNTU0NiwgMjAxOC0wMy0xMSkiIHNvZGlwb2RpOmRvY25hbWU9ImNvZGVfZmlsZS5zdmciIHg9IjBweCIgeT0iMHB4IiB2aWV3Qm94PSIwIDAgMjIuNTkgMjMuNDUiIHN0eWxlPSJlbmFibGUtYmFja2dyb3VuZDpuZXcgMCAwIDIyLjU5IDIzLjQ1OyIgeG1sOnNwYWNlPSJwcmVzZXJ2ZSI+JiN4YTs8c29kaXBvZGk6bmFtZWR2aWV3IGJvcmRlcmNvbG9yPSIjNjY2NjY2IiBib3JkZXJvcGFjaXR5PSIxIiBmaXQtbWFyZ2luLWJvdHRvbT0iMCIgZml0LW1hcmdpbi1sZWZ0PSIwIiBmaXQtbWFyZ2luLXJpZ2h0PSIwIiBmaXQtbWFyZ2luLXRvcD0iMCIgZ3JpZHRvbGVyYW5jZT0iMTAiIGd1aWRldG9sZXJhbmNlPSIxMCIgaWQ9Im5hbWVkdmlldzQ0MTMwIiBpbmtzY2FwZTpjdXJyZW50LWxheWVyPSJzdmc0NDEyOCIgaW5rc2NhcGU6Y3g9IjEuNDMzMjc2NyIgaW5rc2NhcGU6Y3k9Ii01NC44ODYxMTciIGlua3NjYXBlOnBhZ2VvcGFjaXR5PSIwIiBpbmtzY2FwZTpwYWdlc2hhZG93PSIyIiBpbmtzY2FwZTp3aW5kb3ctaGVpZ2h0PSIxMDE3IiBpbmtzY2FwZTp3aW5kb3ctbWF4aW1pemVkPSIxIiBpbmtzY2FwZTp3aW5kb3ctd2lkdGg9IjE5MjAiIGlua3NjYXBlOndpbmRvdy14PSItOCIgaW5rc2NhcGU6d2luZG93LXk9Ii04IiBpbmtzY2FwZTp6b29tPSIzLjU3MDUzODUiIG9iamVjdHRvbGVyYW5jZT0iMTAiIHBhZ2Vjb2xvcj0iI2ZmZmZmZiIgc2hvd2dyaWQ9ImZhbHNlIj4mI3hhOwk8L3NvZGlwb2RpOm5hbWVkdmlldz4mI3hhOzxnIGlkPSJnNDQxMjYiIHRyYW5zZm9ybT0idHJhbnNsYXRlKC0yNC43MDYxLC0wLjc1MzUpIj4mI3hhOwk8dGl0bGUgaWQ9InRpdGxlNDQxMDYiPlBhZ2UtMTwvdGl0bGU+JiN4YTsJPGcgaWQ9Imdyb3VwMzE1My0xIiB0cmFuc2Zvcm09InRyYW5zbGF0ZSgyNC43MDYxLC00MC4xODY1KSI+JiN4YTsJCTx0aXRsZSBpZD0idGl0bGU0NDEwOCI+Q29kZSBmaWxlPC90aXRsZT4mI3hhOwkJPGcgaWQ9InNoYXBlMzE1NC0yIj4mI3hhOwkJCTx0aXRsZSBpZD0idGl0bGU0NDExMCI+U2hlZXQuMzE1NDwvdGl0bGU+JiN4YTsJCQk8cGF0aCBpZD0icGF0aDQ0MTEyIiBpbmtzY2FwZTpjb25uZWN0b3ItY3VydmF0dXJlPSIwIiBzdHlsZT0iZmlsbDojM0Y1NzY1OyIgZD0iTTE3Ljg4LDQwLjk0SDMuMTNDMS40LDQwLjk0LDAsNDIuMzQsMCw0NC4wNiAgICAgdjE3LjJjMCwxLjczLDEuNCwzLjEzLDMuMTMsMy4xM2gxNi4zM2MxLjcyLDAsMy4xMy0xLjQsMy4xMy0zLjEzVjQ1LjU5TDE3Ljg4LDQwLjk0eiBNMjAuNjksNjEuMjZjMCwwLjY4LTAuNTUsMS4yNC0xLjIzLDEuMjQgICAgIEgzLjEyYy0wLjY3LDAtMS4yMi0wLjU2LTEuMjItMS4yNHYtMTcuMmMwLTAuNjcsMC41NS0xLjIyLDEuMjItMS4yMkgxNi45djMuODZoMy43OVY2MS4yNnoiLz4mI3hhOwkJPC9nPiYjeGE7CQk8ZyBpZD0ic2hhcGUzMTU1LTQiIHRyYW5zZm9ybT0idHJhbnNsYXRlKDUuNzE1NzUsLTUuNTIwNzUpIj4mI3hhOwkJCTx0aXRsZSBpZD0idGl0bGU0NDExNSI+U2hlZXQuMzE1NTwvdGl0bGU+JiN4YTsJCQk8cGF0aCBpZD0icGF0aDQ0MTE3IiBpbmtzY2FwZTpjb25uZWN0b3ItY3VydmF0dXJlPSIwIiBzdHlsZT0iZmlsbDojM0Y1NzY1OyIgZD0iTTEuMDcsNTQuNjF2MS41N2MwLDAuOS0wLjM2LDEuMzUtMS4wNywxLjM1ICAgICB2MS4yOWMwLjcxLDAsMS4wNywwLjQ0LDEuMDcsMS4zdjEuNjljMCwwLjg5LDAuMiwxLjUzLDAuNTksMS45MUMyLjEsNjQuMTcsMi44OSw2NC4zOSw0LDY0LjM5di0xLjMyYy0wLjQsMC0wLjY4LTAuMS0wLjg2LTAuMjkgICAgIGMtMC4xOC0wLjE5LTAuMjYtMC41Mi0wLjI2LTAuOTh2LTEuNDRjMC0xLjE2LTAuMzctMS44OC0xLjA5LTIuMTd2LTAuMDNjMC43Mi0wLjI5LDEuMDktMS4wMSwxLjA5LTIuMTN2LTEuNTEgICAgIGMwLTAuODEsMC4zNy0xLjIyLDEuMTItMS4yMnYtMS4zMmMtMS4xLDAtMS44NywwLjIyLTIuMzIsMC42NkMxLjI3LDUzLjA0LDEuMDcsNTMuNywxLjA3LDU0LjYxeiIvPiYjeGE7CQk8L2c+JiN4YTsJCTxnIGlkPSJzaGFwZTMxNTYtNiIgdHJhbnNmb3JtPSJ0cmFuc2xhdGUoMTIuMTIsLTUuNTIwNzUpIj4mI3hhOwkJCTx0aXRsZSBpZD0idGl0bGU0NDEyMCI+U2hlZXQuMzE1NjwvdGl0bGU+JiN4YTsJCQk8cGF0aCBpZD0icGF0aDQ0MTIyIiBpbmtzY2FwZTpjb25uZWN0b3ItY3VydmF0dXJlPSIwIiBzdHlsZT0iZmlsbDojM0Y1NzY1OyIgZD0iTTIuOTIsNTYuMnYtMS42MmMwLTAuODktMC4yLTEuNTMtMC42LTEuOTMgICAgIEMxLjg3LDUyLjIsMS4wOSw1MS45OCwwLDUxLjk4djEuMzJjMC43NSwwLDEuMTMsMC40MSwxLjEzLDEuMjJ2MS40NWMwLDEuMTcsMC4zNiwxLjkxLDEuMDgsMi4yMXYwLjAyICAgICBjLTAuNzIsMC4yOS0xLjA4LDAuOTktMS4wOCwyLjExdjEuNWMwLDAuNDUtMC4wOSwwLjc3LTAuMjYsMC45NmMtMC4xNiwwLjItMC40NiwwLjMtMC44NywwLjN2MS4zMmMxLjEyLDAsMS45LTAuMjIsMi4zNC0wLjY3ICAgICBjMC4zOS0wLjM5LDAuNTgtMS4wNCwwLjU4LTEuOTV2LTEuNjNjMC0wLjg4LDAuMzYtMS4zMiwxLjA4LTEuMzJ2LTEuMjlDMy4yOCw1Ny41MywyLjkyLDU3LjA4LDIuOTIsNTYuMnoiLz4mI3hhOwkJPC9nPiYjeGE7CTwvZz4mI3hhOzwvZz4mI3hhOzwvc3ZnPg==;fontStyle=0;fontSize=18;" vertex="1" parent="1">
          <mxGeometry x="80" y="80" width="90" height="90" as="geometry" />
        </mxCell>
        <mxCell id="vW0nKosWkTAQCs77d1A3-5" value="Packer CLI" style="shape=image;verticalLabelPosition=bottom;labelBackgroundColor=none;verticalAlign=top;aspect=fixed;imageAspect=0;editableCssRules=.*;image=data:image/svg+xml,PHN2ZyB4bWxucz0iaHR0cDovL3d3dy53My5vcmcvMjAwMC9zdmciIHZpZXdCb3g9IjI0LjkxNzk5OTI2NzU3ODEyNSAwIDc4LjQwMjAwMDQyNzI0NjEgMTI4LjIzODAwNjU5MTc5Njg4IiB3aWR0aD0iNzguNDAyMDAwNDI3MjQ2MSIgaGVpZ2h0PSIxMjguMjM4MDA2NTkxNzk2ODgiPjxwYXRoIGZpbGw9IiMxZGFlZmYiIGZpbGwtcnVsZT0iZXZlbm9kZCIgZD0iTTY2LjQ3NyAzOS42OTF2ODguNTQ3TDI0LjkxOCAxMDQuMjNWMTUuNjc2em0wIDAiLz48cGF0aCBmaWxsPSIjMWQ5NGRkIiBkPSJNODcuMDU1IDI2LjAyM0w0MS44NzkgMHYxOC4wNzhsMzAuNzE1IDE3LjczOHY1NC4yMmwxNC40NiA4LjI4NGM4Ljk1IDUuMTY4IDE2LjI2NiAyLjA3IDE2LjI2Ni02Ljg3NVY1MS42ODhjMC04Ljk1LTcuMzE2LTIwLjQ5Ny0xNi4yNjUtMjUuNjY1em0wIDAiLz48L3N2Zz4=;fontStyle=0;fontSize=18;" vertex="1" parent="1">
          <mxGeometry x="380" y="80" width="54.84" height="90" as="geometry" />
        </mxCell>
        <mxCell id="vW0nKosWkTAQCs77d1A3-7" value="Runs Provisioners" style="shape=image;html=1;verticalAlign=top;verticalLabelPosition=bottom;labelBackgroundColor=#ffffff;imageAspect=0;aspect=fixed;image=https://cdn1.iconfinder.com/data/icons/KDE_Crystal_Diamond_2.5_Classical_Mod/128x128/apps/kcmsystem.png;fontSize=18;" vertex="1" parent="1">
          <mxGeometry x="660" y="350" width="90" height="90" as="geometry" />
        </mxCell>
        <mxCell id="vW0nKosWkTAQCs77d1A3-14" value="" style="shape=flexArrow;endArrow=classic;html=1;rounded=0;" edge="1" parent="1">
          <mxGeometry width="50" height="50" relative="1" as="geometry">
            <mxPoint x="180" y="125" as="sourcePoint" />
            <mxPoint x="370" y="125" as="targetPoint" />
          </mxGeometry>
        </mxCell>
        <mxCell id="vW0nKosWkTAQCs77d1A3-15" value="" style="shape=flexArrow;endArrow=classic;html=1;rounded=0;" edge="1" parent="1">
          <mxGeometry width="50" height="50" relative="1" as="geometry">
            <mxPoint x="440" y="124" as="sourcePoint" />
            <mxPoint x="656" y="124" as="targetPoint" />
          </mxGeometry>
        </mxCell>
        <mxCell id="vW0nKosWkTAQCs77d1A3-16" value="" style="shape=flexArrow;endArrow=classic;html=1;rounded=0;" edge="1" parent="1">
          <mxGeometry width="50" height="50" relative="1" as="geometry">
            <mxPoint x="710" y="210" as="sourcePoint" />
            <mxPoint x="710" y="340" as="targetPoint" />
          </mxGeometry>
        </mxCell>
        <mxCell id="vW0nKosWkTAQCs77d1A3-17" value="" style="shape=flexArrow;endArrow=classic;html=1;rounded=0;" edge="1" parent="1">
          <mxGeometry width="50" height="50" relative="1" as="geometry">
            <mxPoint x="650" y="400" as="sourcePoint" />
            <mxPoint x="480" y="400" as="targetPoint" />
          </mxGeometry>
        </mxCell>
        <mxCell id="vW0nKosWkTAQCs77d1A3-18" value="" style="shape=flexArrow;endArrow=classic;html=1;rounded=0;" edge="1" parent="1">
          <mxGeometry width="50" height="50" relative="1" as="geometry">
            <mxPoint x="370" y="395" as="sourcePoint" />
            <mxPoint x="180" y="394.5" as="targetPoint" />
          </mxGeometry>
        </mxCell>
        <mxCell id="Mit5fFu091HztU7115hm-1" value="VM Instance" style="sketch=0;html=1;verticalAlign=top;labelPosition=center;verticalLabelPosition=bottom;align=center;spacingTop=-6;fontSize=18;fontStyle=0;fontColor=#0D0D0D;shape=image;aspect=fixed;imageAspect=0;image=data:image/svg+xml,PHN2ZyB4bWxucz0iaHR0cDovL3d3dy53My5vcmcvMjAwMC9zdmciIHhtbG5zOnY9Imh0dHBzOi8vdmVjdGEuaW8vbmFubyIgd2lkdGg9IjIwIiBoZWlnaHQ9IjIwIiB2aWV3Qm94PSIwIDAgMjAgMjAiPiYjeGE7CTxzdHlsZSB0eXBlPSJ0ZXh0L2NzcyI+JiN4YTsJLnN0MHtmaWxsOiM0Mjg1ZjQ7fSYjeGE7CS5zdDF7ZmlsbDojNjY5ZGY2O30mI3hhOwkuc3Qye2ZpbGw6I2FlY2JmYTt9JiN4YTsJPC9zdHlsZT4mI3hhOwk8cGF0aCBjbGFzcz0ic3QyIiBkPSJNNyA3aDZ2Nkg3eiIvPiYjeGE7CTxwYXRoIGNsYXNzPSJzdDEiIGQ9Ik05IDBoMnY0SDl6TTUgMGgydjRINXptOCAwaDJ2NGgtMnoiLz4mI3hhOwk8cGF0aCBjbGFzcz0ic3QwIiBkPSJNOSAxNmgydjRIOXptLTQgMGgydjRINXptOCAwaDJ2NGgtMnptMy01VjloNHYyem0wIDR2LTJoNHYyem0wLThWNWg0djJ6Ii8+JiN4YTsJPHBhdGggY2xhc3M9InN0MSIgZD0iTTAgMTFWOWg0djJ6bTAgNHYtMmg0djJ6bTAtOFY1aDR2MnoiLz4mI3hhOwk8cGF0aCBjbGFzcz0ic3QyIiBkPSJNMyAzdjE0aDE0VjN6bTEyIDEySDVWNWgxMHoiLz4mI3hhOwk8cGF0aCBjbGFzcz0ic3QxIiBkPSJNMTAgMTBsLTMgM2g2eiIvPiYjeGE7CTxwYXRoIGNsYXNzPSJzdDAiIGQ9Ik0xMyA3bC0zIDMgMyAzeiIvPiYjeGE7PC9zdmc+;" vertex="1" parent="1">
          <mxGeometry x="660" y="80" width="90" height="90" as="geometry" />
        </mxCell>
        <mxCell id="Mit5fFu091HztU7115hm-2" value="Destroy VM Instance" style="sketch=0;html=1;verticalAlign=top;labelPosition=center;verticalLabelPosition=bottom;align=center;spacingTop=-6;fontSize=18;fontStyle=0;fontColor=#0D0D0D;shape=image;aspect=fixed;imageAspect=0;image=data:image/svg+xml,PHN2ZyB4bWxucz0iaHR0cDovL3d3dy53My5vcmcvMjAwMC9zdmciIHhtbG5zOnY9Imh0dHBzOi8vdmVjdGEuaW8vbmFubyIgd2lkdGg9IjIwIiBoZWlnaHQ9IjIwIiB2aWV3Qm94PSIwIDAgMjAgMjAiPiYjeGE7CTxzdHlsZSB0eXBlPSJ0ZXh0L2NzcyI+JiN4YTsJLnN0MHtmaWxsOiM0Mjg1ZjQ7fSYjeGE7CS5zdDF7ZmlsbDojNjY5ZGY2O30mI3hhOwkuc3Qye2ZpbGw6I2FlY2JmYTt9JiN4YTsJPC9zdHlsZT4mI3hhOwk8cGF0aCBjbGFzcz0ic3QyIiBkPSJNNyA3aDZ2Nkg3eiIvPiYjeGE7CTxwYXRoIGNsYXNzPSJzdDEiIGQ9Ik05IDBoMnY0SDl6TTUgMGgydjRINXptOCAwaDJ2NGgtMnoiLz4mI3hhOwk8cGF0aCBjbGFzcz0ic3QwIiBkPSJNOSAxNmgydjRIOXptLTQgMGgydjRINXptOCAwaDJ2NGgtMnptMy01VjloNHYyem0wIDR2LTJoNHYyem0wLThWNWg0djJ6Ii8+JiN4YTsJPHBhdGggY2xhc3M9InN0MSIgZD0iTTAgMTFWOWg0djJ6bTAgNHYtMmg0djJ6bTAtOFY1aDR2MnoiLz4mI3hhOwk8cGF0aCBjbGFzcz0ic3QyIiBkPSJNMyAzdjE0aDE0VjN6bTEyIDEySDVWNWgxMHoiLz4mI3hhOwk8cGF0aCBjbGFzcz0ic3QxIiBkPSJNMTAgMTBsLTMgM2g2eiIvPiYjeGE7CTxwYXRoIGNsYXNzPSJzdDAiIGQ9Ik0xMyA3bC0zIDMgMyAzeiIvPiYjeGE7PC9zdmc+;" vertex="1" parent="1">
          <mxGeometry x="80" y="350" width="90" height="90" as="geometry" />
        </mxCell>
        <mxCell id="Mit5fFu091HztU7115hm-3" value="Creates Image" style="shape=image;verticalLabelPosition=bottom;labelBackgroundColor=default;verticalAlign=top;aspect=fixed;imageAspect=0;image=data:image/png,iVBORw0KGgoAAAANSUhEUgAAC7gAAAfQCAMAAABlzOIIAAACPVBMVEVHcExDg/JEgfFCg/BEhvRBlP9EgvFDh/1GgutVsv9EhfZDhvlEhfVDg/FDgvBDhPJEhPNDg/FDhfVEhfVBedtDhfVEhfRDhvlEhfVDhfVDhPJDhvtDhfdDhfZEhPNDhvlDhvlEhPJDg/JEhfRDhvpDhvlEhPBEhPBDhvlFg+9EhPBFhO9Fg+9EhPBDhfhAet1DhfZAet1Aet1DhvpCfeRAet1Aet1Fg+5Aet1Fg+5DhfZAet1Fg+1AfeFBe99AetxAe91DhfZBe95Fg+1EhPFEhPBBetxChvpDh/xBetxBe93///9EhvhEhvlEhvdDh/xEhfRDh/tEhfVFhfNAe99DhvpAe+BFhfJGg+tAe95AfOJEhvZFhO5Gg+xFhO9FhPBAfOM/fOVGhO1Dh/1Ehvo/fOREhfZBetxGg+pFhPFBe91AfOFAe+FBettFhfFFhO1Ae90/fOZDhvs/fedBetpGhOxBe9w/feazyvPy9v5AfulZjeZNhOLa5vrM3PlDgeiZuvK2zvZ9puxxnupDhPTm7/2/0/afvvJBfeVDgevQ3/lEhPBDhPLB1fZAfueAqOxEgOXE2fxxnux5pO7B1/16pey2zfRflvW5z/ZBfOOnxvvd6f2Vtu9EgOaUtvCcu+9xnuuHsfijv/DN3/38/f9FhPN/qO73+v5zn+pwovjs8v3U4vuOsu9klemArPmGre7H2feOtvtSieeuyPVWkfhsm+qow/JNi/ZViuR4o+tDfuFIgeJckepNhuhCf+bsZ4mUAAAAS3RSTlMAFBAZBwMMqqoBUupdLikjOh52fq5m9MBBbTPeiJC5ydTdSOTzmtWZo8yF7PKisvn56Nz5TsTywqGxqnf5WpLSaP2E5Pz6QP37tbpsCK16AABgoklEQVR42uzd7W+c9Z3vcWyPJ5oZ31v2+N7jO3DTxbKUI1X1M0utEsm5K6jao+VJUNJI++RImzygaUUFPU27Qi3dpeyBhbPV4dSQDeFmKVAOq3b/tgNtgZDE8cxc1zXz+/2u1+sfMIj4+3kzunLNI48AAAAAAAAAAAAAAAAAAAAAAAAAAAAAAAAAAAAAAAAAAAAAAAAAAAAAAAAAAAAAAAAAAAAAAAAAAAAAAAAAAAAAAAAAAAAAAAAAAAAAAAAAAAAAAAAAAAAAAAAAAAAAAAAAAAAAAAAAAAAAAAAAAAAAAAAAAAAAAAAAAAAAAAAAAAAAAAAAAAAAAAAAAAAAAAAAAAAAAAAAAAAAAAAAAAAAAAAAAAAAAAAAAAAAAAAAAAAAAAAAAAAAAAAAAAAAAAAAAAAAAAAAAAAAAAAAAAAAAAAAAAAAAAAAAAAAAAAAAAAAAAAAAAAAAAAAAAAAAAAAAAAAAAAAAAAAAAAAAAAAAAAAAAAAAAAAAAAAAAAAAAAAAAAAAAAAAAAAAAAAAAAAAAAAAAAAAAAAAAAAAAAAAAAAAAAAAAAAAAAAAAAAAAAAAAAAAAAAAAAAAAAAAAAAAAAAAAAAAAAAAAAAAAAAAAAAAAAAAAAAAAAAAAAAAAAAAAAAAAAAAAAAAAAAAAAAAAAAAAAAAAAAAAAAAAAAAAAAAAAAAAAAAAAAAAAAAAAAAAAAAAAAAAAAAAAAAAAAAAAAAAAAAAAAAAAAAAAAAAAAAAAAAAAAAAAAAAAAAAAAAAAAAAAAAAAAAAAAAAAAAAAAAAAAAAAAAAAAAAAAAAAAAAAAAAAAAAAAAAAAAAAAAAAAAAAAAAAAAAAAAAAAAAAAAAAAAAAAAAAAAAAAAAAAAAAAAAAAAAAAAAAAAAAAAAAAAAAAAAAAAAAAAAAAAAAAAAAAAAAAAAAAAAAAAAAAAAAAAAAAAAAAAAAAAAAAAAAAAAAAAAAAAAAAAAAAAAAAAAAAAAAAAAAAAAAAAAAAAAAAAAAAAAAAAAAAAAAAAAAAAAAAAAAAAAAAAAAAAAAAAAAAAAAAAAAAAAAAAAAAAAAAAAAAAAAAAAAAAAAAAAAAAAAAAAAAAAAAAAAAAAAAAAAAAAAAAAAAAAAAAAAAAAAAAAAAAAAAAAAAAAAAAAAAAAAAAAAAAAAAAAAAAAAAAAAAAAAAAAAAAAAAAAAAAAAAAAAAAAAAAAAAAAAAAAAAAAAAAAAAAAAAAAAAAAAAAAAAAAAAAAAAAAAAAAAAAAAAAAAAAAAAAAAAAAAAAAAAAAAAAAAAAAAAAAAAAAAAAAAAAAAAAAAAAAAAAAAAAAAAAAAAAAAAAAAAAAAAAAAAAAAAAAAAAAAAAAAAAAAAAAAAAAAAAAAAAAAAAAAAAAAAAAAAAAAAAAAAAAAAAAAAAAAAAAAAAAAAAAAAAAAAAAAAAABQTtWxuZGZqamlpa2t7RPQA9tbW0tLU1MzI3NjVb+BAADHGJibXz7RXNy8/IUzl6FHvvrDtrnY3F6enxvwGwkA8KBk32puikdC0mhuyXcAgK+Mj2y1RCLB5vuJ+YWaX1MAoOSGF+ZPNKQhodtsTk1U/L4CAGU1UN/2cAzxPAO/MzPktxYAKJ/xmR1/85TY2n11aszvLgBQJqNLHmonUq0l7Q4AlMTgzKr6I+bP3VvzXjUDACSvNrF1SvkRfbufqHvRDACQssklr5AhEYtL/qoqAJCq0a0z/j4qCX3svj3qtxoASNDcjtIjNU1PzAAAianU/YVUktQa8cVMAEBC2T7j0XbSfdh9ZtjvOACQhFp9UdyR9qfufs0BgARMeEiG5K3O+U0HACI3ekLUUYq/prrgtx0AiNjQ9jVFRzmc2fZ1qgBArGojm3KO8tic97dUAYAojXq4nbI96u4bmQCA+FSnfUsq5XteZrnqdx8AiItXQFJOi+t++wGAiFS3BBxlte1DdwAgGhM+bqfMH7pPuAEAQBSGpzzdTrmfdJ/2ehkAIAKTTeFG2TUnXQIAIHR1726Hy5sjbgEAELThJckGn9vyuAwAELABj8nAF4/LDLoIAECoRr1NBr60OOYmAABhWvd4O9z9oHvdVQAAAlSbEmrwddM1lwEACE3lhEqDe21X3AYAICxVfy0VHvRXVKuuAwAQksHVMxeA+60OuA8AQDiGWvoMHuhya8iFAABCMb4oz+Aoi+NuBAAQhjHdDg/RGHUlAIAQLGxelmag3AGAwI02dBk89DH3yw1fogoA9N14w+ftcFy6NzznDgD02aTn2+H4cD+z6N0yAEBfDXgPJLSl5X3uAEAfDa7qMWjvOfdV36EKAPRNddXz7dCuZsXNAAD6o3ZCi0H7H7pvOxoAQH9MSzHoxJSrAQD0Q/2aEINOnKm7GwBA7/nCVOjUpq9QBQB6bsAL3KFji14KCQD0WKXp83bonFfLAAA9tqXAoBtbrgcA0EszPm+H7oy4HwBA74xuyi/oypnNSRcEAOiVassH7tD1Y+7DbggA0CMecIfuXZ52QwCA3qhLL8jytMyEKwIA9MJAQ3lBFouD7ggA0AMndBdkc8IdAQCKN6K6IKu6SwIAFM2DMpBdw8MyAEDR9jQXZHbZF6gCAAVb9wZ3yMG1OdcEAChSZVFxQR4WK+4JAFCgaR+4Qz6m3BMAoDjjp+QW5POU++a4iwIAFGbHB+6QFy9zBwAKs661ID/rbgoAUIzhltSC/LSGXRUAoBBTSgvyfMx93lUBAIow0PCEO+SpMeCuAAAF2NJZkOsn7peX3RUAIH+jZ4QW5OvMqMsCAOSuqbIgb02XBQDIW11jQf7qbgsAkK/KosSC/J+VWay4LgBArqYlFhRhynUBAPI0tCmwoAibQ+4LAJCjbX0FxdhyXwCA/CyclldQjO8tuDAAQF5qq74zFYqyWnNjAICcjGgrKMxlr4QEAHJSXfSBOxRnserKAAC5WFJWUOAn7penXRkAIA+TXgUJhTo16c4AADk4oaug2M/ct90ZACC7iWu6Cop1bc6lAQCyGl5VVVD0R+5eCQkAZDZz2StloPByn3FrAIBsBhuaCooP98agawMAZLLs83bohSXXBgDIYuyUoIJeODPu3gAAGex4wh16Y8e9AQC6t67boVfWXRwAoFuVlnCHXmlV3BwAoEtTsh165vK8mwMAdGdgU0tB72wOuDoAQFe2lBT08iP3ZVcHAOjGwmklBb10etTdAQC60NRR0NuP3JvuDgDQubq/mQq9Vnd5AIBOVRZFFPTaoldCAgCdmvaBO/TelNsDAHRm0qsgoQ82h1wfAKAj298D+mDL9QEAOjHxfQEFfbHg/gAA7autyifoj9WaCwQAtG1EPUG/jLhAAEC7qg3xBP2yWHWDAIA2LWkn6JcLl6fdIACgPeOnxBP0z+akKwQAtGVHOUE/P3Pfc4UAgHbMCSforzl3CAA43nBLNkFfnWkNu0QAwLHmL+gm6LMZlwgAOM6gV0FC3zUG3SIA4BjLl0UT9N2SWwQAPNyYV0FCAE6NuUYAwEOt+MAdQrDjGgEAD1PXSxCEC+vuEQBwtMriGcEEQWhVXCQA4EhTagkCcXneRQIAjjKwqZYgFI0BNwkAOMKWVoJwbLlJAMCDLZyWShCOM6OuEgDwQE2lBCFpukoAwIOMXBBKEJS6uwQA3K+yKJMgLIteCQkA3G/ad6ZCaKZdJgDgXpNeBQnB2RxymwCAe+x5wh3Cs+02AQBfN/F9iQThOT3hOgEAd6utKiQI0WrNfQIA7jKjjyBMI+4TAPCVakMeQZg2qi4UAPClJXUEgbq85EIBAF8YP6WOIFSnxt0oAOCvdrQRBOv0CTcKAPiLOa9wh5DNuVIAwOeGW8IIQtYadqcAgM/M6yII24w7BQA88sigV0FC4BqDLhUA8MiWKoLQLbtUAMCYV0FC8E6NuVUAUHorl0URBG/FrQKAsqt7FSSE78LlddcKAMqtsnhaE0EEFivuFQCU2pQegiicmXKvAKDMhjb1EMRhc8jFAoAS21ZDEIstFwsAymvBA+4QjdMLbhYAlFWtqYUgGpebNVcLAEpqxKsgISIX6q4WAJRTZVEJQUwfuS9W3S0AKKUlIQRxfeQ+7W4BQBlNehUkRBbum5MuFwCU0J4n3CE22y4XAJTPxPdFEMTm+xNuFwCUTW3VB+4Qn1WvhASAsplRQBDhU+6XR1wvACiXakMCQYwag+4XAJTKsv6BOC25XwBQJuOn5A/E6dS4CwYAJbKjfiDWx9xPuGAAUB7r4gfite6GAUBZDLekD8T7kXtr2BUDgJKYv3wNiNe8KwYA5TDQED4QsQuNAXcMAEphS/hA3OW+7I4BQBmMntE9ELczoy4ZAJTAiifcIXZNlwwA0le/IHog+o/c624ZAKSusqh5IH6LFdcMABI3rXggBVOuGQCkbWhT8EAKNofcMwBI2vb3gSRsuWcAkLKF03IH0nB6wUUDgHTVmmoHUgn31ZqbBgDJGrmgdiAZI24aAKSq2pA6kIwLG1VXDQASteQJd0jItWlXDQDSNH5K6UBK4b456a4BQJJOnFM6kJRtdw0AUjSnciAx5+ZcNgBIz3DLE+6QmpZXQgJAemY0DiTnzIzbBgCpGfQqSEhQY9B1A4DELCscSNGS6wYAaRnzKkhI0qkx9w0AkrKjbyBNO+4bAKRk/bK8gUStu3AAkI5KS9xAqloVNw4AkjGlbSBd824cAKRiYFPaQLKuNQZcOQBIxJa0gZTLfdmVA4A0LJxWNpCy06PuHAAkoalrIG1Ndw4AUlBXNZD6R+51lw4A4ldZvCZrIHGLXgkJAPGb1jSQvim3DgBiN+RVkFACm0OuHQBEblvRQAlc23LtACBuE+cUDZTB6Qn3DgBiVlvVM1COcF+tuXgAELEZ370EZTHi4gFAvKoNMQMlcWGj6uYBQLSWfOAOpXFt2s0DgFiNn9IyUJ5w3xx39QAgUjs+cIcy2XP1ACBOczoGymXO3QOAGA23ZAyUS2vY5QOACM2rGCiZ0zMuHwDEZ9CrIKF0GoNuHwBEZ1nDQOlcW3L7ACA2Y6euiRgonVNjrh8ARGZFwUAZ7bh+ABCX+vcEDJTSuvsHADGpLMoXKOdT7q2KCwgAEZnynalQVvMuIADEY2BTvEBJXWgMuIEAEI0t8QLlfVhmyw0EgFgsnL4ClNW506OuIABEoildoMyariAAxGFEt0C51d1BAIhBZVG2QLkteiUkAMRgWrVA2U27hAAQvslN0QJltznkFgJA8PY0C7DtFgJA6CbOSRbg3IRrCABhq60qFuDK6dWaewgAQZsRLMDnRtxDAAhZtSFXgM9c2Ki6iAAQsCW5AvzZtZMuIgCEa/yUWgH+4tS4mwgAwdrRKsAXTriJABCqOaUCfGXdVQSAMA23hArwldawuwgAQZrXKcBdrs24iwAQooHGNaEC3KUx4DICQIC2VArwdcsuIwCEZ8yrIIF7nBp1GwEgOCsaBbjH6abbCAChqUsU4H5eCQkAgaksChTgfosV9xEAgjJ9RqAA9zs35T4CQEiGNs8B3O/s5pALCQAB2T6vT4AHlvuWCwkA4VjQ7cARzi+4kQAQilpTmwBHadZcSQAIxIgyAY70vborCQBhqC4qE+Boi1V3EgCCcFKXAA8z7U4CQAgmvQoSeKjNSZcSAAKwp0qAh9t2KQGg/yY0CXCMsxNuJQD0W21VkwDHuLLqlZAA0G8zVzQJcGy5j7iWANBfgw1FAhyvMeheAkBfLZ8WJEAbltxLAOin8V05ArTj1LiLCQB9tOMJd6A9Oy4mAPTPnBYB2rXuZgJAvwy3pAjQrtawqwkAfTKlRID2zbuaANAfA14FCXSgMeBuAkBfbOkQoANXlt1NAOiH0VM6BOjEqVGXEwD6YEWFAB0523Q5AaD36t9TIUCH6m4nAPRaZVGCAJ1+5L5YcT0BoMemz50VIUCn5T7legJAbw1tKhCg83DfHHI/AaCntgUI0I0t9xMAemnCczJAd5+5L7igANA7tVX1AXSnWXNDAaBnRrQH0K0RNxQAeqW6cUF7AF3aqLqiANAjS1ekB9Cta9OuKAD0xrhXQQIZbE66owDQEyd0B5DBlW13FAB6YU52ANnMuaQAULzhlugAsn3kvuqVkABQvPnTvnwJyFjuM24pABRtsKE5gKwag64pABRsWXEA2S25pgBQrLFTggPI7tSYewoAhVrRG0AedtxTACjSutoA8rHuogJAcSqt76kNIBetipsKAIWZuiI2gJzMu6kAUJSB2dNaA8hJY8BVBYCCbCkNIDcXll1VACjGwr7SAPJzetRdBYBCNHUGkKOzTXcVAIow4gF3IF91lxUA8ldZFBlAvh+5L3olJADkb1pkAHmbclsBIG9DmxIDyNvmkOsKADnbVhhA/rZcVwDI18RZgQHk7/yE+woAeaqt6gugCKs1FxYAcjSjLoAinD094sICQH6qDe9wB4qxUXVjASA3S55wBwpyYdqNBYC8jO9qC6Aom5OuLADkZEdZAIW5sufKAkA+5oQFUKQ5dxYA8jDckhVAkR+5rw67tACQg3lZARRb7jMuLQBkN9hQFUCxGoNuLQBktnxFVAAFW3ZrASCrsVOSAijY2VNjri0AZLTiA3egeDuuLQBkU9cTQA9cWXdvASCLSssH7kAvtCouLgBkMHXuLEAPXJl3cQGgewOzwh3ojcaAmwsAXdvSEkCvbLm5ANCthX0pAfTK/qirCwDdqTWVBNA7TWcXALozoiOAXqq7uwDQjcqijAB6adErIQGgG9PeKAP01rTLCwCdm5wVEUBPnd8ccnsBoGN7IgLotW23FwA6NXFVQgC9dnXC9QWAztRWFQTQe6s19xcAOjKjH4B+GHF/AaAT1cZ5/QD0QWPQBQaADizpdqAvzp10gQGgfeO76gHoj91xNxgA2rajHYB+feS+5wYDQLvmpAPQP+uuMAC0Z7glHID+aQ27wwDQlnndAPTTjDsMAO0YaMgGoI/ONQZcYgBow5ZXQQL9tewSA8DxxrwKEuiz/VG3GACOtXJFNAB9tuIWA8Bx6ooB6LvveSUkAByjsnZOMgB9t1ZxjwHgoab0AhCA01PuMQA8zNCsXgBCMDvkIgPAQ2yrBSAMWy4yABxtYV8sAGHYX3CTAeAotaZWAAJxpVlzlQHgCCNSAQjGubqrDAAPVl1UCkA44b5RdZcB4IFOCgUgJNPuMgA8yOSmTABCsjvpMgPAA+ypBCAs2y4zANxv4qpIAMJydcJtBoB71VY1AhCaVa+EBIB7zSgEIDhXRlxnAPi6wcZ5iQAEpzHoPgPA1yzrdiBA55fcZwC42/iuPgBCtDvuQgPAXXbUARCkK3suNAB8ZV0cAIE6t+5GA8AXhlvaAAhVa9iVBoC/mlIGQLjmXWkA+IuBhjAAwtUYcKcB4M+2dAEQsmV3GgA+N7ovC4CQ7Y+61ADwmaYqAMLWdKkB4JFH6poACNz5ulsNAJVFTQCEbrHiWgNQetOKAAj/I/cp1xqAshvaPC8JgODNDrnXAJTcth4AYrDlXgNQbhNX5QAQg/0FFxuAMqutqgEgDqs1NxuAEhvRAkAsRtxsAMqruiEFgEic26i62gCU1pIUAOIx7WoDUFbju0Ig0U8mP3njtedffpBXX/vglWJ+5kcfHPEjn3/tg4+K+bd85YPXXj3iR77xiT8FKdqddLcBKKm9c0IgSbd/d3BweHCk1z/I/0e+9+zh0T/y8ODOe/n/yA9eP/Lf8PCzf5jf3fbHO0Hb7jYA5TQnbJL00e8OjnH4+u2cP/p+9rgfeXAn5w/6b9885t/x4PDlj/xhSM+cyw1AGQ23fGdqkh+33zw43q038vy/tvdutPEjb+T6PwsfHLbxI2++4v9Nk+OVkACU0rxuT9C5V24dtOWNHLv9sK2feJhjuX/Q3r/krVf8iUjOjNsNQPkMNiRAis/JvH3QZtPmltHt/q/CwY3cMvp2mz/x4HV/RzU5jUHXG4DSWVYAKXq53aQ9vPlkTj/yTts/8oWf5fMTP2n3/04ODj686s9EapZcbwDKZmzX478Jun3YdtIevPPLfB6Uaf8nHryUT7n/ov2fePhH5Z6a3TH3G4CSWbH/pf7A/fO/uvliLuX+bAc/8ic/yqPcz93o4Ed++CPlnpod9xuAcqmfNv8p6iRpD97No9w/6uQnHv4pj3K/3cmPfPtF5Z6cdRccgDKptM6ToI6S9uC56y/+MvOP/KCjH/nW9Rd/lvlHvtbRj3z3+otP+JORllbFDQegRKZsf5I6q+gfXs+h3F/r8P8Vcij3lzv8fwXlnpx5NxyA8hiYNf0putpZRf/H9ezlfvbVjn7kh9dzKPc7Hf3Id64r99ScbQy44gCUxpbpT1Nn4f7C9RzK/Z87+pHPX8+h3F/v9EN+5Z6cZVccgLJY2Df8wv2v4Z613LsI96zl3kW4K/fE7I+64wCURNPuC/cvwz1juXcT7hnLvZtwV+6JabrjAJRD3eoL97vCPVu5dxXu2cq9q3BX7ol95F53yQEog8qG1Rfud4d7pnLvLtwzlXt34a7c07LmlZAAlMG0zRfuXw/3LOXeZbhnKfcuw125J+XclFsOQPomvQpSuN8b7hnKvdtwz1Du3Ya7ck/K7JBrDkDyti2+cL8v3Lsv967Dvfty7zrclXtKzm655gCkbuKqxRfu94d71+Xefbh3Xe7dh7tyT8nVBfccgLTVVu29cH9QuHdb7hnCvdtyzxDuyj0hT63WXHQAkjbzlL0X7g8M9y7LPUu4d1nuWcJduadU7iMuOgApq3oVpHA/Kty7K/dM4d5duWcKd+WekI2qmw5AwpbOGXvhflS4d1Xu2cK9q3LPFu7KPSEn3XQA0jW+a+qF+9Hh3k25Zwz3bso9Y7gr93TsTrrqACRrxxPuwv1h4d5FuWcN9y7KPWu4K/d07LnqAKRqzs4L94eHe+flnjncOy/3zOGu3NMx564DkKbhlg/chfsx4d5xuWcP947LPXu4K/dkrA677AAkaV63C/djw73Tcs8h3Dst9xzCXbkn4uzZGZcdgBQNNsy8cD8+3Dss9zzCvcNyzyPclXsqGoNuOwAJWrbxwr2dcO+s3HMJ987KPZdwV+6JeGrZbQcgPWP7Nl64txXuHZV7PuHeUbnnE+7KPRG7Y647AMlZsfDCvc1w76Tccwr3Tso9p3BX7onYcd0BSE3dvgv3tsO9g3J/Oadw76Dc8wp35Z6IdfcdgLRU1sy7cG8/3Nsv99zCvf1yzy3clXsaWhUXHoCkTFl34d5JuLdd7vmFe9vlnl+4K/c0zLvwAKRkaNa4C/eOwr3dcs8x3Nst9xzDXbmn4GxjwI0HICFbxl24dxjubZZ7nuHeZrnnGe7KPYlyf8yNByAdC14FKdw7Dvf2yj3XcG+v3HMNd+Wegv1RVx6AVNSall24dx7ubZV7vuHeVrnnG+7KPQXNmjsPQCJG7Lpw7ybc2yn3nMO9nXLPOdyVewrq7jwAaagsPmXXhXs34d5Guecd7m2Ue97hrtwTsFF16QFIwrRVF+5dhvvx5Z57uB9f7rmHu3JPwLRLD0AKJmfPWXXh3mW4H1vu+Yf7seWef7gr9/jNTrr1ACRgz6YL9+7D/bhyLyDcjyv3AsJducdv260HIH4TV026cM8Q7seUexHhfky5FxHuyj16VydcewBiV1u16MI9U7g/vNwLCfeHl3sh4a7cY3d21SshAYjdjEEX7hnD/aHlXky4P7Tciwl35R69EfcegLhVG+ZcuGcN94eVe0Hh/rByLyjclXvknmoMuvgARG15354L98zh/pByLyrcH1LuRYW7co+93JdcfABiNr5rzYV7DuF+dLkXFu5Hl3th4a7cI7c77uYDELEdWy7ccwn3I8u9uHA/styLC3flHrk9Nx+AeM1ZcuGeU7gfVe4FhvtR5V5guCv3yK27+gDEarhlyIV7XuF+RLkXGe5HlHuR4a7c49YadvcBiNS8HRfu+YX7g8u90HB/cLkXGu7KPWpnZ9x9AOI02DhryIV7fuH+wHIvNtwfWO7Fhrtyj1pjwOUHIEqPWXHhnmu4P6jcCw73B5V7weGu3KO27PIDEKNRr4IU7jmH+wPKvehwf0C5Fx3uyj1mu6NuPwARWrHhwj3vcL+/3AsP9/vLvfBwV+4RO7fi9gMQn7oH3IV7/uF+X7kXH+73lXvx4a7cY+aVkABEp7JmwIV7AeF+b7n3INzvLfcehLtyj/gj97WK+w9AZKYNuHAvJNzvKfdehPs95d6LcFfuEZty/wGIy9Cs+RbuxYT718u9J+H+9XLvSbgr93jNDlkAAKKyvW++hXtB4f61cu9NuH+t3HsT7so9XlsWAICYLOh24V5cuN9d7j0K97vLvUfhrtyjtb9gAwCIR63plTLCvcBwv6vcexXud5V7r8JduUerWbMCAERjxHIL90LD/aty71m4f1XuPQt35R6rc3UrAEAsqhuWW7gXG+5flnvvwv3Lcu9duCv3WG1U7QAAkThpt4V70eH+Rbn3MNy/KPcehrtyj9W0HQAgDpOz5+y2cC863P9a7r0M97+Wey/DXblHanbSEgAQhT2rLdx7EO5/Kfeehvtfyr2n4a7c43R22xIAEIOJq1ZbuPci3P9c7r0N9z+Xe2/DXbnH6eqELQAgfLVVmy3cexPun5d7j8P983Lvcbgr9zg/cl/1SkgAwjfjFe7CvVfh/lm59zrcPyv3Xoe7co/TiDUAIHSDDYMt3HsW7tdf7Hm4X3+x5+Gu3KPUGLQHAARu2V4L9x6G+/Vf9Tzcrz/b83BX7lFasgcAhG1s11zH66MPXnv5d1nc7Chpb/wkB2939CPfzuNH3uroR97M9LNe/cP7f1LukdodtwgABG3HE+7ReuPOZ5l5eEBgDl/4jXKP045FACBk608RqdvPSuRgvfDuM8+8eNEf0uis2wQAwlVpnbfVcfrAR+1Bf+r+vnKPUatiFQAI1pSljtRr2jhwzyn3CD0xbxUACNVAw1JH+nm7MA7eW8o9Qo0BuwBAoLbsdKTPt3tOJny3/qjc43N+2S4AEKbRfTsdpzuyOAL/8Yxyj8/+qGUAIEhNKx2n90RxFF5S7hGGe9MyABCiupGO1O80cRR+/oxyj88TddsAQHgqGzY6Tp94wj2Sp9z/TblH+JT7mldCAhCeaRMdqTckcUTPyij36ExZBwBCMzRroON01TvcY/HOM8o9QrND9gGAwGzb51g971GZSPzfZ5R7jLbsAwBhmXjCPMfqZUUcif/1jHKP0cUFCwFASGqrwj1a/6yII/H8M8o9Ss2ajQAgICO2WbjTu3BX7nEZsREAhKO6cdY2C3d6F+7KPSobVSsBQDCWLLNwp6fhrtyjMm0lAAjF+K5hFu70NtyVe0xmJ+0EAIHYs8vCnV6Hu3KPyPltOwFAGObO22XhTs/DXbnHZM5SABCC4ZZRFu70IdyVe0RWh20FAAGY3zfKwp1+hLtyj8iMrQCg/wYbJlm4059wV+7ReKIxaC0A6Ltlkyzc6Ve4K/d4yn3JWgDQb2NeBSnc6V+4K/do7I7ZCwD6bMUeC3f6GO7KPRo79gKA/qpbY+FOX8NduUdj3WIA0E+VNa+UEe70N9yVeyxaFZsBQB9N2WLhTr/DXbnHYt5mANA/A7M+cBfu9D3clXskGgNWA4C+2bLEwp0Awl25R+IxqwFAvyz4vF24E0S4K/c47I/aDQD6pGmHhTthhLtyj8LFpt0AoD9GfOAu3Akl3JV7HOqWA4B+qGwYYeFOMOGu3KOw5pWQAPTDtA0W7gQU7so9ClO2A4Dem5w1wcKdkMJduUfg/OyQ9QCg57ZNsHAnrHBX7jF43HoA0GsTTxhg4U5g4a7cI3B1wX4A0Fu1Vfsr3Aku3JV7BFZrFgSAnpqxvsKdAMNduUdgxIIA0EvVjfPWV7gTYLgr9/BtVG0IAD20pNuFO2GGu3IP3vmTNgSA3hnftb3CnUDDXbkHb3fSigDQMztXSYdwjybc/6FN13/mj3XY9qwIAL0yZ3fLHO63bpCPW0WFu3IP3pwdAaA3hltmt8zh/tI/kI/fFBbuyj1w+48OWxIAemLe7Ap3wg535R648zOWBIBeGGxYXeFO4OGu3MP2RGPQlgDQA8vnra5wJ/RwV+6BW7YlABRvbNfkCnfCD3flHvZH7rtj1gSAwq34wF24E0O4K/ewrVgTAIpWt7fCnTjCXbkH7fy6PQGgWJW1fYMr3Ikj3JV70NYqFgWAQk1ZW+GuuKMJd+Ue9Efu8xYFgCINzVpb4a644wl35R6y2SGbAkCBHre1wl24xxTuyj3kj9wfsykAFGfBA+7CXbjHFe7KPWD7C1YFgKLUmpZWuAv3yMJduQesWbMrABRkxM4Kd+EeXbgr94DV7QoAxahsmFnhLtzjC3flHq6NqmUBoBAnPeEu3IV7jOGu3MM1bVkAKMKkV0EKd+EeZ7gr92DNTtoWAAqwZ2OFu3CPNNyVe7Aety0A5G/iCRMr3IV7rOGu3IM1YV0AyFtt1cAKd+Eeb7gr91CteiUkAHmbsa/CXbjHHO7KPVDnR+wLAPmqbpw1sMJduMcc7so9UI1BCwNArpbOm1fhLtzjDnflHqiTFgaAPI3vGlfhLtxjD3flHqbdcRsDQI52niBZHYf70+Sj43DP/iOv/9If+PBc3bMxAORn7qptFe7CPYFwV+5hWrcyAORluGVYhbtwTyLclXuILraG7QwAOZk3rIF65bWXf3czq1vCPZJwv5X5v/ULP3/uXeUeohk7A0A+BhtmNUjv3Tw4POg94d6vcM/H62+96XcnOI0BSwNALh6zqiH66M5Bfwj3uMP94OCFj/z6BGfZ0gCQh7Fdoxqg2zcOhLtw787bt/0ChWZ31NYAkIOVp4xqgE+3963bhXv84X5w4xW/QqFZsTUAZFe3qAH65OaBcBfuGR50/8QvUWDOeyUkAJlV1ixqgD48EO7CPYs/eLdMaNYq9gaAjKbtaYgPyhwKd+Geya0fK/fQTNkbALIZmt23p+F57UC4C/dsfuF97qGZHbI4AGTyuDUN0U3hLtwzetZ3qAZny+IAkMWCz9tD9NGBcBfuWf1JuYdmf8HmANC9WtOWhui2cBfumb37tHIPTbNmdQDo2oglDdJ7wl24Z/bp08o9OHWrA0C3qhuGNEhvCHfhntlbTyv34GxU7Q4AXTp51ZAKd+Gecrgr98BM2x0AujM+a0aFu3BPO9yVe1hmJy0PAF3Ze8qMCnfhnni4K/ewbFseALoxZ0OFu3BPP9yVe1B+NmF7AOjc8KPe4S7chXsJwl25B2XVKyEB6NyMbhfuwr0U4a7cQ/LUiPUBoFODjYsmVLgL91KEu3IPycag/QGgQ8u6XbgL97KEu3IPyZL9AaAzY7vmU7gL99KEu3IPyO6YBQKgIyvWU7gL9xKFu3IPyLctEACdWLedwl24lyrclXtA1m0QAO2rtEyncBfu5Qp35R6Mi62KFQKgbVP+ZqpwF+5lC3flHo55KwRAuwZmDadwF+6lC3flHozGgB0CoE1bF335knAX7uULd+UejGU7BEB7Rt80m8JduJcx3JV7KN4ctUQAtKXpCXfhLtzLGe7KPRRNSwRAO+o2U7gL97KGu3IPw8Un67YIgONVNoymcBfupQ135R6INa+EBOB40xZTuAv3EoT7T59W7kGbskYAHGfIqyDDd1u4C/fMPn5auQdtdsgeAXCMbXsZvKdeEe7CPbMfP63cw7ZljwB4uAmvgozAJ4fCXbhndOvfnlbuYdtfsEgAPExt1VrG4J+Fu3DP6OcP/UdT7iGE+zdqNgmAhxgxlv52qnAvRbi/9bRyD77cR2wSAEerehVkJE+53xTuwj2T1//xaeUevI2qVQLgSEuWMhLvCXfhnsmnx/7TKfcATFslAI4y7lWQ0XheuAv3DP7Qxj+ecu+7q7OTdgmAI3z7vKWM5mGZF4S7cO/af/zj08o9inLfs0sAPNicmYzIJ88Ld+HepR/+V3v/gMq97y7OWSYAHmT40atmMh4/e+L9t4W7cO/Czbfa/idU7n23OmybAHiAeRsZ2dMy//23dw6Fu3DvyOFP3vm3Dv4RlXvfzdgmAO432LhoIyPzo6d//9L7v30uo9eFeyTh/mzW/9S/fevjP3X4z6jc+60xaJ0AuM+yhYyx3HPwK+EeSbg/349/SOXeb0vWCYB7je0ayJKWu3AX7so9YLtj9gmAe6zYx7KWu3AX7so9YBd37BMAX1fft49lLXfhLtyVe9DWLRQAd6usGcfSlrtwF+7KPWitio0C4C5TPnAvb7kLd+Gu3MM2b6MA+MrArGksb7kLd+Gu3MPWGLBSAHxpyzKWuNyFu3BX7oF7zEoB8IUFD8qUudyFu3BX7mHbf3PUTgHwV80nLWOJy124C3flHrqmnQLgL0asYqnLPaxw//07H/7qzrMhuPOrD9//k3BX7iG4eLFuqQD4XGXDkzKlLveQwv03dw4PQnL4wkvCXbmHYM0rIQH43PRFo1jqcg8n3N994SA8P/mjcFfu/Xd+ylYB8Mgjk14FWfJyDybcP71xEKIbvxHuyr3/ZoesFQCP7FnEkpd7KOH+zuFBmA7fF+7Kvf8et1YATLxpEEte7oGE+0uhdvtn5f6xcFfufffmhL0CKLvaqj0se7mHEe4/vnEQrrf/JNyVe789uVqzWAAlN+Nvppa+3MMI91cPQvYH4a7c++7iiMUCKLfqhjUsfbkHEe7vHgYd7oc/Fu7Kve82qjYLoNSWnjKGpS/3IML9w4Ow/UK4K/f+O2mzAMps/LsXSc2PftChTsP9//ygADcDD/dni/iX/pdOw/0HgXjml37P+mJ23GoBlNiOJVTuQYT7uweh+71wV+79t2e1AMprzg4q9zDC/afBh/vHwl25B2DdbgGU1fCjT9hB5R5EuL8TfLj/Wrgr9wA86pWQAGU1YwWVeyDh/ovgw/23wl25h8ArIQFKqrJhBJW7cBfuyj0maxXbBVBKUzZQuQt34a7co/LUvO0CKKPBxpNGULkLd+Gu3KPS8C1MAGW0ZAGVu3AX7so9Mk9OWy+A8hmatYDKXbgLd+Uem9kh+wVQOo/ZP+Uu3IW7co/Psv0CKJvxvzV/yl24C3flHp/vTlowgJJ53Popd+Eu3JW7j9wBCN7krlfKKHfhLtyVe5RPuQ/aMIBSWbZ9yl24C3flHqcpGwZQJgNeKaPchbtwV+6R2vD1qQBl4ktTlbtwF+7KPVojVgygPIY3DJ9yF+7CXbnH6tGaHQMojbrdU+7CXbgr92jtr9sxgNJoeqWMchfuwl25x2vFjgGUxfibZk+5C3fhrtzj9ea4JQMoiZNWT7kLd+Gu3GM2bckAyqHmr6Yqd+Eu3JV71Nb89VSAcli3ecpduAt35R63CVsGUArbJk+5C3fhrtyj9sRjtgygDKq+NVW5C3fhrtwjN1u1ZgAlMGPxlPvX/Fy4C3flHp0nfXsqQBk0LZ5yF+7CXbnHzqvcAUpg0kvclbtwF+7KPXrfGbBnAMnzpIxyF+7CXbknwLMyAOlbMXfKXbgLd+Uevz17BpA675RR7sJduCv3FMxWLBpA4urWTrkLd+Gu3FOwbtEAErdl7JS7cBfuyj0FyxYNIG21DWPHj4S7cFfu8Xtyw6QBpG3C2HFvuQt34a7c4zRq0wCSNm3quLfchbtwV+5xmrJpAEn71r6t455yF+7CXbnHyZenAiRt2Msgua/chbtwV+5xPuQ+W7NqAAlbMHXcV+7CXbgr90iNWTWAhM0bOu4rd+Eu3JV7pGasGkDC9gwd95W7cBfuyj1Sj1s1gIR5izv3l7twF+7KPVJrVg0gXeN2jvvLXbgLd+UeqyG7BpCsETPH/eUu3IW7co9V3a4BJGvpCTvHfeUu3IW7co/VSbsGkKwVM8f95S7chbtyj9WeXQNI1saTdo77yl24C3flHit/OxUgWdU3zVxaPnnv1TtvH/Y6YYV7v8I9s8Obd3746T8p93Tsf6di2QAS5XtT0/Lkczf6krDCPdpw/7Mbz/2Tck/HqGUDSJSXyqTkZ7dv9ilhhXvc4X5wcPNd5Z4Mr5UBSNWSkUvIe7cOhLtw7/JD90+VeyqmLRtAonaMXDpuHx4Id+HerVsfK/dEeK0MQKrWjFwyPrpxINyFe/fe/r1yT8Ojlg0gUbNGLhkvHwh34Z7FD71bJgn7f2PZANI0aOSS8cqBcBfu2d4M+UflngbvgwRI05iJS8aHwl24Z/QH38SUhknbBpCkOROXjLeFu3DP+k5I36GahgnbBpAkr3H3pIxwF+5f+r1yT4IXuQOkaepJG5eI28JduGf27g+UewpmbBtAknz/UjLeE+7CPbN/+YFyT8FJ2waQpG0Tl4o3hLtwz+ytHyj3FGzZNoAkrZg44S7chXu/w1255+vbtg0gSU0TJ9yFu3Dve7gr91yt2DaAJH3DxAl34S7c+x/uyj1PTdsGkKRH922ccBfuwr3/4a7cc/QN2waQpDUTJ9yFu3APIdyVe272H7VtAEnasHHCXbgL9yDCXbnnZs22ASSpYeKEu3AX7mGEu3LPy4ZtA0jSrIkT7sJduAcS7so9J9+0bQBJ+s6TJKK/4f4/L+Uv/HD/3wX8W/c33H99qc/+8e/9Kudg1rYBCHeEu3AX7spduAPQH7MmTrgL95DC/aclD3flngOPygAk6ps2TrgLd+EeULgr9xz4y6kAadowccJduAv3kMJduWfndZAAaVozccJduAv3oMJduWfmC5gA0vSoiRPuwl24hxXuyj2rb9g2gCR9w8QJd+Eu3AMLd+We0bdsG0CSvmXihLtwF+6hhbtyz2bFtgEkacXECXfhLtyDC3flnsm3bRtAkh43ccJduAv38MJduWfxmG0DSNKSiRPuwt03p37hp5eUewpO2jaAFNXmTVwi/va2cPeJe2YfX1LuKZgxbgBJGjFxqXhFuAv3zH58SbmnoG7bAJI0Z+KScUu4e1Qmoxv/eUm5p2DCtgEkaczEJeNl4e4T94xevXRJuadg0rYBJKlq4pJ5yP094e4T94w+vaTcU/D3FdsGkKZZI5eMZ4W7T9wzufOvl5R7Cr5p2QAStWbkknFbuPvEPYvDjy9dUu4peNSyASTq20YunYdlXjsU7j5xD+tfR7n3w55lA0iUb2BKyJuvCnefuHfth5cuKfc0TFs2gER5kXtSn7k/dyjcfeLe3XMyz126pNwT4TXuAKlaMHJJlftLd4S7T9y78MK7ly4p91SMWTaARFUtYlrl/l//8uoN4S7cO/L2D//90r/+q3JPxXe8DRIgWV4rk1i5v3jpP//fxz/9dUZ3hHsk4f7C8f8xP/33h3r390E3u3LvmJfKAKRrxcwlV+45+Llwj+QZ91cvlYNyb5+XygCky2tllLtwF+7KPSEn7RpAsrxWRrkLd+Gu3BPipTIA6Zo0c8pduAt35Z6OIbsGkK4NO6fchbtwV+6pWLNqAAnbM3TKXbgLd+WeisetGkDC5g2dchfuwl25p2LGqgEkzHenKnfhLtyVezJ8bypAyoZnLZ1yF+7CXbmn4W9qVg0gZb6CSbkLd+Gu3BOxY9MAkjZt6pS7cBfuyj0NUzYNIGU1D7krd+Eu3JV7IkaNGkDa5e5N7spduAt35Z4Eb3EHSN1jxk65C3fhrtxTsGzRABL334ydchfuwl25p2DOS2UA0lareCGkchfuwl25J/D7PlsxaQCp27F3yl24C3flHr89ewaQvBlzp9yFu3BX7vEbsWcAyRsygcpduAt35R697wzYM4Dk1b5l8JS7cBfuyj12K+YMoAQ8K6PchbtwV+6elAEgAlXvlVHuwl24K/fIzVatGUAZPG7ylLtwF+7KPW6P2TKAMqjNmTzlLtyFu3KP24QxAyhHua/ZPOUu3IW7co/Zmm9NBSiJk0ZPuQt34a7cYzZtyQBKYtz6KXfhLtyVe8T+x6QlAygLr3JX7sJduCv3iHmJO0B51M2echfuwl25x2vdjgGUxrC/nqrchbtwV+7+aioAEZgyfMpduAt35R6reSsGUCKDvj1VuQt34a7cI/U3vjUVoFSWVK1yF+7CXbnH6aQNAyiVIR+5K3fhLtyVe5RmB2wYQLk8JmqVu3AX7so9RssWDKBkxr8rapW7cBfuyj0+3/XlSwA+cqes5S7chbty94E7ACHzlLtyF+7CXbl7wh2AGJyUtMpduAt35R6baesFUEKD35S0yl24C3flHpdveoc7QCn5+lTlLtyFu3KPjC9NBSinypqiVe7CXbgr95isVWwXQDmNCFrlLtyFu3KPyYjlAiip4UcFrXIPI9x/G3y4vy/clXsAHq1ZLoCymtOzyj2McP918OH+78JduQdgzm4BlNe3/5bS+Pv/+rsH6zjc/+7/t3dvv3FcB57HxWY3oSJ4p2RQhESAMkCCtyFI8BpeQUkEJL8MsIZhEbYD7EscX2I9eAYy5DjZ2bWzycCIsUAyDuKsMVlhNXGcsZBsDMXOH7dybMcX3brZ1VWnzvl85nEw07ES/c43herTuXvpz8GH+1/z/6c+ajncj7jH//zXlP4Wf8epBZCwwcf0rHIPINyP3nkt8G7/4Ei4K/fSPTbs1AJI2Vk5q9xDCPeW/0UU7U/CXbmXb9aZBZC0nsflbPLlHkS4/yLwcP/zi8JduZftcb+9BJC2rE/NJl/uQYT7S78PuttvH3nirtxL5ypIgOTLfUbNpl7uQYT7UdBfT735B+Gu3Es348ACSN7Q99Vs4uUeRrgf/TbkX186Eu7KvfS/u+POKwAWxGzi5R5IuB+9HWy3//JIuCv30i04rQDIul0JmXi5hxLu7/wy0G6//o5wV+6le6zbcQXAiROjWjbtcg8l3I+O/vetALP91kcvHgl35V66EWcVAHfVJ7Vs0uUeTrgf3bl+M7SvpV7/Y+f+cYW7cm/aZN1ZBcBneqVs0uUeULgfHf3xw9sfhBLvN998+6PXO/kPK9yVe9N6nVQAfG5dyqZc7kGF+0t3Hd25EYI7R0ef/OpIuCv3EEw4pwD4Qv9FKZtwuQcV7kkR7sq9SRf7nVMAfCGbVrIJl7twF+7KPXDTjikA/q5rXsmmW+7CXbgr97DNdzmlAPjKiJBNt9yFu3BX7mE744wC4GvqU0I22XIX7sJduQdtylWQAHxddl7HJlvuwl24K/egnXdEAfDNcp/QsamWu3AX7so9ZJuZEwqAbxq4pGMTLXfhLtyVe8AuDTqfAPi2czI20XIX7sJduQfsrAfuANyjNidjK+nf2vPXG7eFe0XC/e22fwz2HeVeOXM1pxMA9zqtgSvX7D/+/WtPtOXmMf5vhHtZ4Z6DD9748I5yr5TTziYA7qPhSshK+cH/+283nyiDcK9wuH/2X9au/1G5V8eMF2UAuK8xMVwl/3nriSeEu3A/htf+Q7lXxpiTCYD7+44arox//PHNJ4S7cD/mQ/cPlXtFnHQuAfAAg48J4so8b3/iCeEu3I9d7r9Q7pXw2LBzCYAHmRXEVfla6i3hLtzbcOuGcq+CUacSAA/U87gkroY3nhDuwr0db7lbpgIe73EqAfBgfZK4En73hHAX7u35g3IPX58zCYCHyGZEcRW8K9yFe5v+dKTcQzfjSALgocYvquIKeE24C/c2vXmk3AN3cdyJBMDDLajiCnw19QnhLtzbdUe5B27aby8B8Ajd87o4dD/4nXAX7l5yj73c57udRwA8yqgwDt6/C3fh3ra/HCn3oI04jQB4pPqkMBbuwj3+cP+XI+Uessm60wiAR+sVxsJduAt35V6uFWcRAM2YUMbCXbgLd+VepgknEQBNGXAlpHAX7sJduZfoYr+TCIDmTEtj4S7chbtyL8855xAATarNaWPhLtyFu3Ivy3yXcwiAJmVntLFwF+7CXbmX5YxjCICmNabEsXAX7sJduZdjquEUAqD5R+5j4li4C3fhrtzLcd4hBEAr/kEdC3fhLtyVexk2nUAAtGTwkjwW7sJduCv34l0adAIB0Jqz8li4C3fhrtyLN5s5gABoTe1xfSzchbtwV+5Fm+tx/gDQqtP6WLgLd+Gu3IvW5/QBoGXZjEAW7sJduCv3Ys14UQaAYxj6vkIW7sJduCv3In1/SLgDcBzfUcjCXbgLd+VepAUnDwDHMvyYRBbuwl24K/fiPDbs5AHgeGYlsnAX7sJduRdn1LkDwDHVJzWycBfuwl25F+XxunMHgOPq08gh+sF/Cnfh3rZfHCn34PQ6dQA4tmxdJYfod8JduLftDy8q99CsN5w6ABzf+EWVHKB/E+7CvW13Uv/jD6/cL447cwBox4JKDtFrwl24t+kDf/7Blfu0EweAtnTPq+Tw/Jd3hbtwb9Of/PmHVu7z3U4cANozIpO95C7cIwz3P7/k34DAyn3EeQNAm1wJGeK1Mj/4P8JduLflbX/8oZX7pKsgAWhbr04O8eupN4W7cG/DrRu/8ucfWLmfd9oA0L4JmRzgM/d/F+7CvQ0/96cfWrlPOGsAyMGAKyFDLPefCHfhflw33/OHH1q5XxzIHDYA5GBaJgfof3x0S7gL9+O9J/MXf/bBlfs5Jw0AuajNyeQA/eNfr98U7sK99cftb93wRx9cuc91OWkAyMcZlRxkuf/0r+//8JZwF+6tPGz/2Y9le4jlfto5A0BOGlMqOUg/vdscr99o123hXpFwf7vtf68//dUnL/pzD7DcpxrOGQDyMvYDgvTTF3PwVqvh/iL5aDXcf+mPrFN+9Vy5f5PHnDIA5GdTI8db7sJduFNuuX/HjTIA5GjwkkaOttyFu3Cn1HK/NOiMASBPZyVytOUu3IU7pZb7rBMGgDxlPY9L5FjLXbgLd8os98d7HDEA5Ou0Qo613IW7cKfMcu9zvgCQ9zP3GYUcabkLd+FOieU+45upAORu6LsKOc5yF+7CnfLK/btDwh2A/J0UyHGWu3AX7pRX7gvOFgA6oPsxgRxluQt34U5p5T7f7WwBoAOyUX0cZbkLd+FOaeU+4mgBoCPqk/o4xnIX7sKdssp9su4NdwA6o08ex1juwl24U1a59zpXAOiUdXkcYbkLd+FOSeW+7lQBoGPGL8rj+MpduAt3yin3i/1OFQA6Z1odx1fuwl24U065TztTAOicrGteHUdX7sJduFNKuc93OVQA6KQRcRxduQt34U4p5X7GiQJAR9WnxHFs5S7chTtllPtU3YkCQGetaOPYyl24C3fKKPfzzhMAOm1CG0dW7sJduFNCuW86TQDouIFL2jiuchfuwp3iy/3SgNMEgM47J43jKnfhLtwpvtzPOksAKEBtThpHVe7CXbhTeLnP1ZwlABQgO62Moyp34S7cKbzcTztKAChEw5WQUZW7cBfuFF3uMw0nCQDFGPs+ofvpS01rNdxvXycfb7Qa7i9RuF8915G/oGPOEQCKsimMIyr3VsOdsgj3aMr9pFMEgMIMbgvjeMpduAt3ii337WGnCADFmdXF8ZS7cBfuFFvuo5lDBIDi9FzQxdGUu3AX7hRa7hd6nCEAFKlPFkdT7sJduFNoufc5QQAoVDYji2Mpd+Eu3Cmy3NcdIAAUbOi7sjiSchfuwp0Cy/3iuDfcASjagiqOpNyFu3CnwHJfcHoAULjux1RxHOUu3IU7xZX7fLfTA4DijYriOMpduAt3iiv3EWcHACWoT4riKMpduAt3Civ3ybqzA4ASNHo1cRTlLtyFO4WVe6+jA4ByrGviGMpduAt3iir3CecGACXpv6iJIyh34S7cKajcL/Y7NwAoy7QkjqDchbtwp6ByP+fUAKAsWde8JK5+uQt34U4x5T7f5dgAoDwjirj65S7chTvFlPsZZwYAJapPKeLKl7twF+4UUu5TroIEoFTnBXHly124C3cKKffzTgwAyjUhiKte7sJduFNEuW86LwAo2cAlQVzxchfuwp0Cyv3SYObAAKBk5/RwxctduAt3Cij3s04LAEpXm9PD1S534S7c6Xy5z9WcFgCU77Qcrna5C3fhTufLvc9ZAUAAGq6ErHa5C3fhTsfLfabhDXcAQjCmhitd7sJduNPxch9zUgAQhu+o4SqXu3AX7nS63BecEwAEYnBbDVe43IW7cKfD5b497JwAIBSzYrjC5S7chTsdLvdRpwQAwei5IIarW+7CXbjT2XJ/vMcpAUA4+rRwdctduAt3OlvuvW6UASAg2boWrmy5C3fhTkfLfb3hjAAgJOMXtXBVy124C3c6We4Xxz1wByAsC1K4quV+XRFXxMcquZLlPu18ACAw3fNSuKLl/hNFXBHvieQqlvt8t/MBgMBkI0q4muX+1IeKuCL+RSNXsdxHHA8ABKc+qYSrWe43FHE13Hz9RY1cvXKfrDsdAAhPrxCuaLn/WhNXws8EchXLfcXZAECIJoRwNcv9fU1cCR/q4wqW+4QbZQAIUTZwSQhXstw//UAUV8Cbn8jj6pX7pX5HAwBhmtbB1Sx3X0/11VQ6U+7nnAsABKo2p4MrWe4vviuL/foSHSj3uS7nAgChOiODq1nun/5QGIf+zVQvylSx3E97wx2AYDWmvkv1/PSppz69LY2DdvvTpwje0TPf+qs11XAqABCuMRVc0XL/5OOb6jjcG9zfF8WVLPfzzgQAApZtquCKlvuTN94WyIF694YkrmS5bzoSAAja4LYKrmi530339974wHP3wJ61v3n7wztXn1TEVSz3S4NOBADCfuR+VgRXt9yfvBuIr7fj49a+b/l6Dlp7Of/dPD6ytV+a/W1bn/XFvytUsdxnHQgABK7nggiubLm37bethXseH9naCz6/zOMjW7uCx+vpqZb7XI/zAIDQndbA6Za7cBfufFnufU4DAIKXzWjgZMtduAt3vij3GVe4A1ABQ89p4FTLXbgLdz4v9+eGnAUAVMFJCZxquQt34c7n5b7gJACgEoYfk8CJlrtwF+78rdy3h50EAFTDrAJOtNyFu3Dnbw6cAwBURN2VkImWu3AX7nxmyVWQAFRGnwBOs9yFu3DnMztOAQAqI1sXwEmWu3AX7ty16ipIACpk/BkBnGK5C3fhzlNPXR0X7gBUyYL+TbHchbtw56mnNpwAAFRK97z+TbDchbtw56m1bicAANUyIn8TLHfhLtx5asv+A1Ax9Sn5m165C3fhznLd/gNQNb3qN71yF+7CnRXrD0D1TKjf5MpduAv35K3afgAqaOCS+k2t3IW7cE/dYr/tB6CKzonf1MpduAv31O1afgAqqTYnfhMrd+Eu3BO31mX5AaimM9o3sXIX7sI9cft2H4CKargSMrFyby3c3yg+3K8LdzppuWH3AaiqMembVrkLd+GetsPM7ANQWZvSN6lyF+7CPWmndDsAFTa4LX1TKnfhLtxTtjho8wGosrPKN6VyF+7CPWUHFh+ASuu5oHwTKnfhLtwTttRj8QGotEaf8E2o3IW7cE/YjsEHoOrlPiN80yl34S7c07WX+WoqAFU39JzwTabchbtwT9aTQ9YegOo7qXuTKXfhLtyTtWHrAYjA8LzuTaXchbtwT9Vat60HIAajsjeVchfuwj1VroIEIA71SdmbSLkLd+GeqOW6pQcgDr2qN5FyF+7CPVGuggQgFtm66k2j3IW7cE/TqpkHIBrjz6jeJMpduAv3JF3tt/IAxGNa9CZR7sJduCfJVZAAxKTLlZBJlLtwF+4pWuuy8QDEZETzplDuwl24p2jLwgMQlfqU5k2g3IW7cE/QcsPCAxCVbEXyJlDuwl24J2jFwAMQmwnJG3+5C3fhnp7L1h2A6AxckrzRl3sJ4f6WcKdUiwPWHYD4nFO80Ze7cBfuydm17QBEqDaneGMvd+Eu3FOzVLPtAMTojOCNvdyFu3BPzb5lByBKmSshYy934S7cE7PnKkgAIjWmdyMvd+Eu3BNzaNcBiNWm3o273IW7cE/LKasOQLQGt/Vu1OUu3IV7UhYHrToA8ZqVu1GXu3AX7kk5sOkARKzngtyNudyFu3BPyVKPTQcgYlmf2o253IW7cE/JjkkHIO5yn1G7EZe7cBfuCVl1FSQAkRt6Tu3GW+7CXbin4+qQPQcgdgtiN95yF+7CPR0b1hyA2GXd82I32nIX7sI9GWvd5hyA+I1q3WjLXbgL92RsecMdgATUJ7VurOUu3IV7KpbrthyAFPRK3VjLXbgL91SseOAOQBrWpW6k5S7chXsiVu04AInovyh14yx34S7c03C1344DkIpppRtnuQt34Z6GXSsOQDK6XAkZZ7m/31LS3s6joN5t6SP/lMdH/r6lj3xP5cZnrSsz4wCkIjvzHLH50ZNPXv2wtcffT+bg49Yef+fxkW+39JE/f5LobBlxABJSnxK6MZb7X1pK2t/mkVDvtfSRH13N4SP/1NJH/vdrOjc2y26UASCpR+7ndW6E5X719ZstJW0OCXXtDy1V9I0cPvLqz1v5xFuf6tzorJhwANIyoXNjfOb+RgtJ+9onuUTUmy185A9z+cRPb7XwkW/L3Ohctt8AJGZgW+dGWO6tPIz+OJeIuvaTFj7yw1w+8oVWvhD7F50bm8UB+w1Aas7J3BjLvfmrEm+9nk9GffpB0x/55icv5PKRd5p/I+hnLwjd2LgKEoD01OZkbnz+9X/dLPbp991H7h81+4k383r63fxT/lt/0LmxWapZbwDSc1rmxqjZGyF/md+j6GZvhHz/am4f2ezPPv3cA/fo7NtuABKUzajcGJ+5N/c0+q1Pcgupq59cL/Cd+s8/8tPbTT3if++qzo3Nnp9eAiBJQ8/I3Bj930dfunLz/Xxj6r1Hv6Bz66NcH35/8vGjP/K1//C8PTpXDy03AGk+cj8pcmP0/T/+9hFR+0beb35fvXP94R95860bOT/8fuHGI16XuXn9dZkbn1OGG4BEDbsSMkrf/dHrH73969fu/+D712+8d+efr+X/CsmdD2//+v6P+l/79e0P73wv998vfeHJG++/8eYDPvKHb330ul9MjdDisN0GIFWzIjfSWyFfeOFBb4m88OD/VZtP3R/0//fqC9eudeRd86tPXr32wH8x17zeHqMDqw1AsnouaNxIy13iEaGlHqsNQLr6JK5yh6rYsdkAJCxbl7jKHaphtWGzAUjZ+CsSV7lDFVwbt9gApG1B4Sp3qIINew1A4rrnFa5yh/CtddtrAFI3InCVO4RvKzPXAKSuPilwlTuEbrlurQGgV98qdwjdiq0GgBMnJvStcoewXbHUAHDXwCV9q9whZIv9lhoAPjMtb5U7hGzXTgPA39Tm5K1yh3CtddlpAPib7Iy6Ve4Qrn0zDQBfaEypW+UOoVpuuMMdAL40Jm6VO4TqvI0GgK9silvlDmG6bKEB4CvZ4La4Ve4QosUBEw0AX3dW2yp3CNGBF9wB4BuP3HsuaFvlDuFZqhloAPim09JWuUN49q0zAHz7mfuMtFXuEJo9L8oAwD2GnpG2yh3CcvXQNgPAvU4qW+UOYdmwzABwH8OuhFTuEJTFYW/KAMD9jApb5Q4hObDLAHBfdVdCKncIyFLdLgPA/fXpWuUO4dixygDwIOu6VrlDKFa94A4ADzT+iq5V7hCGa+M2GQAebFrWKncIg6sgAeBhuudlrXKHEKx1W2QAeJgRVavcIQRb9hgAHqo+pWqVO5Rv2VWQAPAIvaJWuUP5VqwxADzKhKhV7lC2K7YYAB5p4JKoVe5QrsUBWwwAj5Sd07TKHcq1a4oBoAm1OU2r3KFMSzVLDADNOCNplTuUad8OA0BTGq6EVO5Qor2GHQaA5owpWuUO5Tm0wgDQrE1Fq9yhLKcyIwwAzRrcVrTKHcqxOGiDAaB5s4JWuUM5DiwwALSgdkHQKncow1KPBQaAVvTpWeUOZdjxhjsAtCLLZvSscofiuQoSAFo19IyeVe5QtKtD1hcAWrUgZ5U7FG3D9gJAy4bn5axyh2KtDdteAGjdqJpV7lCsLcsLAMdQn1Szyh2KtOwqSAA4jkavmFXuUKQdwwsAx5Kti1nlDsVZNbsAcEzjr4hZ5Q5FudZvdQHguKa1rHKHouz67SUAOK6sa/4ZkvKjq1CWtS6jCwDHNyJllTsUw1WQANCO+pSUVe5QhOW6xQWAdqwoWeUORVixtwDQngklq9yh8y5bWwBo08C2klXu0GmLA9YWANp1Tsgqd+i0XVsLAG2rzQlZ5Q6dtVSztQDQtuy0jlXu0Fn7phYActCY0bHKHTppL7O0AJDHI/cxGavcoZMODS0A5GNTxip36JxTVhYAcjLoSkjlDh2zOGxlASAvsypWuUOnHNhYAMhNzwUVq9yhM5Z6bCwA5KdPxCp36IwdCwsAOcpcCancoSNWXQUJALkaelbEKnfI37Uh+woA+VrQsMod8rdhXQEgZ93zGla5Q97Wuq0rAORtVMIqd8jblm0FgNzVJyWscod8Ldd9NRUAcpf1KljlDvlaMa0A0AnrCla5Q55W7SoAdES/KyGVO+Rosd+uAkBnTAtY5Q752fWCOwB0SNecgFXukJe1LqsKAJ1yRr8qd8jLfsOoAkCn1Kf0q3KHfCzXbSoAdM55+arcIR+uggSATmpsylflDnm4bFABoKMGt+Wrcof2LQ7YUwDorHPqVblD+w6sKQB0WM8F9arcoV1LNXe4A0CHZafFq3KHdu0bUwDofLnPiFflDu3Z87wdAAow9Kx4Ve7Qju8dWlIAKMJJ7arcoR2n7CgAFGJ4Xrsqd2jjKshhOwoAxZiVrsodXAUJAOGruxJSucPxr4LssaIAUJQ+5arc4bh2bCgAFCZbV67KHY5n1VWQAFCg8VeUq3KH47g2LtwBoEgLwlW5S1COY8N+AkChulwJiXLnGNa67ScAFCob0a0od1q3ZT4BoGD1Kd2KcqdVy3XrCQBF65WtKHdatWI7AaB4E7IV5U5rrrhRBgBKMLAtW1HutGKx33ICQBmmVSvKnVbs2k0AKEVtTrWi3GnhKsguuwkA5TgjWlHuNG/fagJASRquhES507S9htUEgLKMaVaUO80670oZAChNtqlZUe4055TJBIASDboSEuVOc1dBDnrgDgBlPnI/K1lR7jTjwGACQKl6LkhWlDuPtlSzlwBQrtOKFeWOqyABIHzZjGJFufPIqyCNJQCUbuhZxYpy5+G+d2grAaB8JwUryp2H23CjDAAEYHhesKLceZi1bksJACEY1asod1wFCQDhq7sSEuXOQyzX7SQAhGFHrqLcebAdKwkAgcjW5SrKnQdZNZIAEIzxV+Qqyp0HXAXZbyMBIJxH7tOvwN/96Bp8ZddEAkBAuubVKsqd+1nrcoc7AIT0yH1ErKLcuZ8tAwkAQalPiVWUO/dabthHAAjrkfuKVkW5c68V8wgAoZX7hFZFufNtl40jAARnYFurotz5psUB2wgA4TknVVHuuAoSAIKX1eakKsqdr1uqmUYACNEZpYpy5+v27SIABKkxo1RR7nxlz1WQABCoMaGKcucrh34zFQBCtSlUUe586ZRNBIBgDboSEuXOl1dBDtpEAAjXrE5FufO5A4sIAAHruaBTUe787SrIHosIAAFr9MlUlDuf2TGIABC0zJWQKHfuWnUVJAAEbuhZmYpy5+UhawgAoVtQqSh3NmwhAARveF6lotxTt9ZtCwEgfKMiFeWeui1vuANA+LL6pEhFuadtuW4KAaAKejUqyj1tKx64A0A1rP9XuI8fvUAaVjMzCADVMP60RkW5p+vlfisIAFUxLVFR7unatYEAUBldcxIV5Z6qtS4bCADVMaJQUe6p2rKAAFAhjSmFinJP07IbZQCgSrIVgYpyT9OKAQSAatkUqCj3FF22fgBQMQPbAhXlnp7FAesHAFVzTp+i3F0FCQCEr+ZKSJR7cpZqtg8Aque0PEW5p2bf8gFA9WSNGXmKck/LXmb6AKCKxtQpyj0th3YPAKrJlZAo96ScsnoAUFGDroREuad0FeSw1QOAqpoVpyj3dBzYPACorJ4L4hTlnsxVkD02DwCqq0+botxTsWPxAKDCMldCotwTsdqweABQZUPPalOUewpeHrd3AFBtC9IU5Z6CDWsHABXXPS9NUe7xW+u2dgBQdaPKFOUev63M2AFA1dUnlSnKPXbLdVsHANXXK0xR7rFb8cAdAGKwLkxR7nG7YucAIAr9TwtTlHvMFvvtHADEYVqXotxjtmvlACASXXO6FOUer6Uub7gDQCQaZ2Qpyj1e+0YOAOIp9ylZinKP1V7dA3cAiEY2pkpR7tFeBWniACAmm6oU5R6ny/YNAKJ65D64rUpR7lFeBTlg4AAgLmdFKco9RgdecAeAyB651y6IUpR7hFdB1swbAMTmtCZFubsKEgCowDP3GU2Kco/uKkgvygBAhIae1aQo97h879CyAUCMTkpSlHtcNuwaAERpeF6SotxjsjZo1wAgTrOKFOUe1VWQVg0AItXjSkiUe0xXQdatGgDEqk+QotzjsWPTACBa2bogRbnHYtVVkAAQsfHn/wma85t/Jmivjls0AIjZgh5FucfBVZAAELeueT2Kco/BWrc9A4C4jchRlHsMtqwZAMQtq0/JUZR79S27ChIAoterRlHu1bdiywAgfhNqFOVedVcsGQAkYGBbjaLcq22x35IBQAqmxSjKvdp27RgAJKE29yw07zffIzBLXXYMAJKQndGiKPcq2zdjAJCIxpQWRblX117DigFAKsakKMq9ug5tGACkY1OKotyr6lRmwgAgHYPbUhTlXk2LgxYMAFIyq0RR7tV0YL8AICVZzwUlinKv5FWQPQYMANJyWoii3Ktox5UyAJDaM/cZIYpyr55V30wFgOQMPS1EUe5V8/KQcAeA9JzUoSj3qtmwXACQoOF5HYpyr5a1bg/cASBB2agMRblXy5bhAoAk1V0JiXKvlGVXQQJAonZUKMq9UldBWi0ASFS2rkJR7hW6CtJoAUCy+p9XoSj3qni132YBQLqmRSjKvSp2/WYqACSse06EotwrchVkl8UCgJSNaFCUu6sgAYDw1ac0KMq9Cvbq9goA0rYiQVHuVbBirQAgcY1NCYpyD99lYwUAyRvYlqAo99AtDtgqAEhedk6BotyDvwrSVAEAJ2quhES5B26pZqkAgBMnzghQlHvY9u0UAHBXY0aAotyDvgrSb6YCAJ/JxvQnyj1kh2YKAPicKyFR7gE7ZaMAgC8MuhIS5R7uVZCDNgoA+NKs/ES5h+rAQgEAf9dzQX6i3AO9CrLHQgEAX+lTnyj3MO3YJwDgK1nmSkiUe5BWMwMFAHzd0NPqE+UenleHrBMA8E0L4hPlHp4N2wQAfEv3vPhEuYdmrdubMgDAt2Sj2hPlHpot0wQA3KM+qT1R7mFZrnvgDgDco9ErPVHuYVkxTADA/axLT5R7UFdBWiUA4L76n5eeKPeAroLst0oAwP1NK0+Uezh2bRIAcH9Z15zyRLkHcxVkl1ECAB5kRHii3F0FCQCErz4lPFHuYdhrWCQA4MFWdCfK3VWQAED4sk3diXIPwWVzBAA81MC27kS5l29xwBoBAA93Tnai3F0FCQCEr+ZKSJR76ZZqtggAeITstOpEuZdt3xQBAI/UmFGdKPeSr4LMLBEA8EjZmOhEuZfq5UNDBAA046ToRLmX6ZQVAgCaMuhKSJR7mVdBDlshAKA5s5oT5V6eAxsEADSp54LmRLmXdhVkjw0CAJrVJzlR7mXZsUAAQNMa65IT5V6OVVdBAgAtGHr+acjDOy/TklfHhTsA0IoFxYlyL8OGbgcAWtI9rzhR7sVb67Y+AEBrRgUnyr14W7YHAGhRfVJwotyLtly3PQBAi7JevYlyL9qK6QEAWreuN1Huxbrim6kAwDEMbOtNlHuRFvvtDgBwHNNyE+VepF0P3AGAY6nNyU2Ue3GWuqwOAHA8Z9Qmyr04+w2jAwAcS9aYUpso96Ls6XYA4NjGxCbKvSjnveEOABxbtik2Ue7FOGVwAIA2DLoSEuVezFWQA/YGAGhDY1ZrotyLcGBuAIC21C5oTZR7AVdB1qwNANCe01IT5V7AVZC2BgBoUzYjNVHuHb8K0tQAAG0bel5qotw769VDSwMAtO+k0kS5d9aGK9wBgBwMzytNlHsnrQ3bGQAgD66ERLm7ChIAqIC6KyFR7h20XLcyAEA++nQmyr1zdrzhDgDkJFvXmSj3Tlk1MQBAbsZdCYly79RVkOMeuAMA+VmQmSj3Dl0FaV8AgBx1uRIS5d6ZqyC77AsAkKNsRGWi3Dthy7wAALmqT6lMlHsHroJsWBcAIF+9IhPlnr8V2wIA5G1CZKLc83bZsgAAuRvYFpko93wtDlgWACB/0xoT5Z6vXbsCAHRAbU5jotzztFSzKwBAJ5yRmCj3PO37zVQAoCPqMxIT5Z6fPVdBAgAdMqYwUe75ObQpAECnbCpMlHteTlkUAKBjhucVJso9H2vDFgUA6JxRgYlyz8eWPQEAOqg+JTBR7nlYrtsTAKCTzutLlHsOXvXNVACgwxb0Jcq9fRu2BADosK4L+hLl7jdTAYDw9cpLlHu7VvxmKgDQeSflJcq9zRdldDsAUICal2VQ7u3dKONFGQCgEOefl5co9+NbdKMMAFCQaeWOcm/jp5e8KAMAFKQ+oy5R7se16qeXAIDCDM6rS5T78awNWxAAoDg74hLlfjw79gMAKNK0uES5H8euF9wBgEI11sUlyr11VxrWAwAoVm1SXKLcW77BvcsDdwCgaAO+oIpyb/WLqf2WAwAo3orb3FHuLXl1xW4AACXIRrQlyr2lX14yGwBAOeW+oC1R7s3bMBoAQEnhXne1DMq9+Qtl/GIqAFAa5Y5yb9Zqj8UAAEqT1Wa0Jcq9GXtdBgMAKFPXlLZEuTdxgXu3tQAASpV1X9CWKPdHWRo2FgBA2QaVO8r9Ud0+YCkAgNI1+ue0Jcr9od3uB1MBgBBkA565o9wf9n77QGYnAIAgDPuGKsr9wd0+rNsBgEBk3TPPQwe982p1uQcSAAip3Gvr2hLlfj9+dwkACEvPprZEud/rsm4HAMKS1Re0Jcr92zYaxgEACM4ZbYly/6YtX0sFAEJ0fk5coty/snTeKgAAYRqcEpco9y8tD3hPBgAIVFbzFVWU+xeu1LwnAwCEqzH7tLpEud910NDtAEDAssaKF91R7q8urWS6HQAIu9yzbq/LkHy5XxnW7QBA+OneOLMtL0m53Be3vCYDAFQj3cfdLkPC5b437nE7AFCVcq/vyksSLfeXN3pkOwBQnXI/cX5SX5JiuS8fNtzeDgBUKt3rB950J71yP+jxejsAUDmDEwKTtMp9td/b7QBABWWNHXe6k1C5r+2rdgCgqunetaAwSaXcN7r8lQcAKhvuJ04MnJSYpFDuV/r9hQcAKm5oXWMSe7mvHvpOKgBQfdnhjMgk4nJ/eW/Hd1IBgDjKvdF3QWUSa7kv79T9JQcAIgn3u1a8MEOU5b63X/e0HQCIK96HNnUmsZX75fP+bgMAEab74O680iSecl/ccJMMABBrunePTkpN4ij35a1uX0kFACJu9xPj0x67U/lyXzt1mLkAEgCIXX1n4jdykwqX+95+TbYDAGkYPHC1OxUt972DQX+DAYBk3H1YOXx6c1tyUq1yX1zd6vbXFwBIT8/KwpzopCrlvnRqv+ZvLQCQqsbA/oJfVSX4cl+6vHXo91EBgKR99g2/7t5dr7wTbLkvb+z3Z25+BAD4vN57xvtmNyffEaAEVO5rqxtbh90ukAEA+Ea7332mmdWG9mcXrkx5851Sy31t78rGwf5h7Yv/VgkAwD35/tkbCXf/pz441Ls/Mjo7PT19Epp0qh0bG7sHB1v7+zuHg/UTWaPR8NcRAKCJgD/x2SvFWebNYgr+j53/wAEAHCukwH/kAAAAAAAAAAAAAAAAAAAAAAAAAAAAAAAAAAAAAAAAAAAAAAAAAAAAAAAAAAAAAAAAAAAAAAAAAAAAAAAAAAAAAAAAAAAAAAAAAAAAAAAAAAAAAAAAAAAAAAAAAAAAAAAAAAAAAAAAAAAAAAAAAAAAAAAAAAAAAAAAAAAAAAAAAAAAAAAAAAAAAAAAAAAAAAAAAAAAAAAAAAAAAAAAAAAAAAAAAAAAAAAAAAAAAAAAAAAAAAAAAAAAAAAAAAAAAAAAAAAAAAAAAAAAAAAAAAAAAAAAAAAAAAAAAAAAAAAAAAAAAAAAAAAAAAAAAAAAAAAAAAAAAAAAAAAAAAAAAAAAAAAAAAAAAAAAAAAAAAAAAAAAAAAAAAAAAAAAAAAAAAAAAAAAAAAAAAAAAAAAAAAAAAAAAAAAAAAAAAAAAAAAAAAAAAAAAAAAAAAAAAAAAAAAAAAAAAAAAAAAAAAAAAAAAAAAAAAAAAAAAAAAAAAAAAAAAAAAAAAAAAAAAAAAAAAAAAAAAAAAAAAAAAAAAAAAAAAAAAAAAAAAAAAAAAAAAAAAAAAAAAAAAAAAAAAAAAAAAAAAAAAAAAAAAAAAAAAAAAAAAAAAAAAAAAAAAAAAAAAAAAAAAAAAAAAAAAAAAAAAAAAAAAAAAAAAAAAAAAAAAAAAAAAAAAAAAAAAAAAAAAAAAAAAAAAAAAAAAAAAAAAAAAAAAAAAAAAAAAAAAAAAAAAAAAAAAAAAAAAAAAAAAAAAAAAAAAAAAAAAAAAAAAAAAAAAAAAAAAAAAAAAAAAAAAAAAAAAAAAAAAAAAAAAAAAAAAAAAAAAAAAAAAAAAAAAAAAAAAAAAAAAAAAAAAAAAAAAAAAAAAAAAAAAAAAAAAAAAAAAAAAAAAAAAAAAAAAAAAAAAAAAAAAAAAAAAAAAAAAAAAAAAAAAAAAAAAAAAAAAAAAAAAAAAAAAAAAAAAAAAAAAAAAAAAAAAAAAAAAAAAAAAAAAAAAAAAAAAAAAAAAAAAAAAAAAAAAAAAAAAAAAAAAAAAAAAAAAAAAAAAAAAAAAAAAAAAAAAAAAAAAAAAAAAAAAAAAAAAAAAAAAAAAAAAAAAAAAAAAAAAAAAAAAAAAAAAAAAAAAAAAAAAAAAAAAAAAAAAAAAAAAAAAAAAAAAAAAAAAAAAAAAAAAAAAAAAAAAAAAAAAAAAAAAAAAAAAAAAAAAAAAAAAAAAAAAAAAAAAAAAAAAAAAAAAAAAAAAAAAAAAAAAAAAAAAAAAAAAAAAAAAAAAAAAAAAAAAAAAAAAAAoBn/H+iVNw5mZVm9AAAAAElFTkSuQmCC;fontSize=18;spacingTop=-12;" vertex="1" parent="1">
          <mxGeometry x="350" y="345" width="150" height="100" as="geometry" />
        </mxCell>
      </root>
    </mxGraphModel>
  </diagram>
</mxfile>
